#!OML:ASF H:\Male1\Project 1\Capture day 1\Session 1\Male1.ASF
:FULLY-SPECIFIED
:DEGREES
272
root 9.67616 15.2141 -2.87681 -1.24649 -13.2654 -3.10829
lowerback 8.52915 3.47964 0.973056
upperback 6.02505 4.66532 -2.97515
thorax 1.81552 2.41775 -3.93059
lowerneck -5.97714 10.3742 12.6235
upperneck 32.1353 14.1462 -4.46296
head 13.0155 7.24461 -1.93705
rclavicle 3.85642e-014 -3.02153e-014
rhumerus -47.9449 -3.58196 -77.66
rradius 32.2746
rwrist -19.6085
rhand -18.3812 2.52012
rfingers 7.12502
rthumb 7.90241 -27.3122
lclavicle 3.85642e-014 -3.02153e-014
lhumerus -37.9604 -6.49922 82.4562
lradius 31.3698
lwrist 5.28192
lhand -22.5281 14.3749
lfingers 7.12502
lthumb 3.89883 44.319
rfemur 0.0788059 10.0091 9.39639
rtibia 19.085
rfoot -32.9494 -33.1295
rtoes 12.7493
lfemur -3.25292 -12.6764 -4.77009
ltibia 21.8912
lfoot -17.9893 15.9273
ltoes -24.6803
273
root 9.9489 15.2661 -2.85544 -0.744383 -13.9385 -3.04633
lowerback 8.2634 3.7816 0.972336
upperback 5.88159 5.06793 -3.35244
thorax 1.8805 2.62688 -4.33132
lowerneck -6.03559 10.339 12.8509
upperneck 32.0876 13.9698 -4.2404
head 12.9929 7.21465 -1.91211
rclavicle 5.12864e-014 -6.52014e-014
rhumerus -47.7364 -4.10092 -78.3034
rradius 32.1859
rwrist -19.4396
rhand -18.5978 2.79248
rfingers 7.12502
rthumb 7.69333 -27.0476
lclavicle 5.12864e-014 -6.52014e-014
lhumerus -37.6665 -7.13186 82.3105
lradius 30.8493
lwrist 5.10819
lhand -22.381 14.8554
lfingers 7.12502
lthumb 4.04084 44.7969
rfemur -0.271218 12.4613 8.80812
rtibia 18.0343
rfoot -36.4076 -34.04
rtoes 20.8007
lfemur -4.21833 -11.4403 -5.80503
ltibia 22.7078
lfoot -18.2405 15.6651
ltoes -23.6623
274
root 10.2216 15.3194 -2.83748 -0.119244 -14.6418 -3.65848
lowerback 7.91409 3.51173 1.30309
upperback 5.7181 4.72758 -3.06959
thorax 1.87391 2.45755 -4.18446
lowerneck -5.42898 10.7172 11.9466
upperneck 31.8183 14.7777 -4.41533
head 12.7614 7.46039 -1.7539
rclavicle -2.42517e-014 2.06736e-014
rhumerus -47.1534 -2.08537 -79.0342
rradius 32.2451
rwrist -19.6516
rhand -18.5105 2.87073
rfingers 7.12502
rthumb 7.77759 -26.9662
lclavicle -2.42517e-014 2.06736e-014
lhumerus -37.8842 -5.84333 82.3374
lradius 30.5104
lwrist 4.78863
lhand -22.1691 15.0538
lfingers 7.12502
lthumb 4.24552 44.9913
rfemur -0.794934 13.7254 9.00939
rtibia 17.4895
rfoot -39.545 -34.5362
rtoes 24.0386
lfemur -5.19064 -11.0709 -6.28848
ltibia 23.6699
lfoot -18.5765 16.2666
ltoes -22.5767
275
root 10.4917 15.3733 -2.82055 0.197002 -15.2123 -3.74682
lowerback 7.85151 3.59001 1.38676
upperback 5.63004 4.83451 -3.06226
thorax 1.83204 2.51152 -4.22781
lowerneck -5.34164 10.8113 11.6817
upperneck 31.6948 15.0567 -4.72061
head 12.7203 7.52187 -1.79219
rclavicle 4.29375e-014 2.06736e-014
rhumerus -46.9032 -1.34813 -79.5013
rradius 32.6607
rwrist -19.7241
rhand -17.9382 2.70809
rfingers 7.12502
rthumb 8.33001 -27.1077
lclavicle 4.29375e-014 2.06736e-014
lhumerus -37.9242 -5.62552 82.4664
lradius 30.3462
lwrist 4.52318
lhand -21.8653 14.8372
lfingers 7.12502
lthumb 4.53883 44.7686
rfemur -1.29743 12.9474 8.74536
rtibia 17.5961
rfoot -37.9592 -34.8514
rtoes 18.9471
lfemur -5.95839 -11.6246 -7.47968
ltibia 24.6289
lfoot -19.3507 17.2778
ltoes -19.7954
276
root 10.7197 15.4214 -2.80942 0.215615 -15.9078 -5.35516
lowerback 8.36173 3.81681 2.53678
upperback 5.75925 5.2057 -2.64126
thorax 1.78674 2.72525 -4.48364
lowerneck -5.45445 10.8662 11.8642
upperneck 31.5582 15.1973 -5.07216
head 12.7524 7.56202 -1.92296
rclavicle 9.54166e-015 -7.95139e-015
rhumerus -46.6475 -1.26819 -79.9006
rradius 33.184
rwrist -19.6562
rhand -16.7187 2.61381
rfingers 7.12502
rthumb 9.50676 -27.1517
lclavicle 9.54166e-015 -7.95139e-015
lhumerus -37.891 -5.80223 82.5117
lradius 30.3716
lwrist 4.52785
lhand -22.0581 15.0319
lfingers 7.12502
lthumb 4.35266 44.9672
rfemur -1.27681 12.5601 10.89
rtibia 18.5729
rfoot -37.5348 -36.2902
rtoes 16.6599
lfemur -5.85859 -12.0054 -6.95334
ltibia 25.3705
lfoot -20.1466 17.8993
ltoes -16.9327
